<svg width="30" height="41" viewBox="0 0 30 41" fill="none" xmlns="http://www.w3.org/2000/svg">
<g clip-path="url(#clip0_660_8053)">
<path d="M17.2198 12.783C16.6207 13.2141 16.3339 13.9145 16.1767 14.6301C16.1406 16.2853 17.156 17.9492 18.9893 17.7876C20.9161 17.6324 21.9741 15.9728 21.6745 14.1538C21.5353 13.8611 21.3574 13.5892 21.1456 13.3455C20.6501 12.8156 19.9923 12.4715 19.2794 12.3694C18.5665 12.2672 17.8405 12.413 17.2198 12.783ZM18.3669 15.7767C17.8464 16.1733 17.4662 15.2443 17.5915 14.8154C17.6051 14.7449 17.6389 14.68 17.6885 14.6288C17.7382 14.5776 17.8016 14.5423 17.8709 14.5274C17.9402 14.5125 18.0123 14.5185 18.0782 14.5448C18.1441 14.5711 18.2009 14.6165 18.2416 14.6753C18.471 14.962 18.5793 15.4577 18.3669 15.7767Z" fill="#FFF4EE"/>
<path d="M7.50284 14.4447C7.57212 14.1619 7.6726 13.8879 7.80237 13.6279C9.08973 11.1579 13.3597 11.1579 13.8992 14.1969C13.8992 14.2831 13.9375 14.4512 13.9587 14.6279L14.031 14.5934C14.5238 14.3973 15.2907 14.3132 15.7729 14.6236C15.7942 14.449 15.8239 14.2831 15.8303 14.1926C16.3699 11.1536 20.6419 11.1536 21.9271 13.6236C22.0738 13.9086 22.1797 14.2134 22.2415 14.5288L22.318 14.5503C22.5113 14.6021 22.7131 14.6344 22.9043 14.699C22.8947 13.281 22.5762 11.8826 21.9718 10.604C21.0732 8.89055 19.8474 7.30211 18.1139 6.4443C16.9055 5.91806 15.5918 5.68841 14.2795 5.77401C13.4404 5.8322 12.6204 6.18782 11.8939 6.54776C9.16833 7.95731 7.14383 10.7678 6.85704 13.8628C6.81759 14.1558 6.79489 14.4508 6.78906 14.7465C7.0015 14.6365 7.21393 14.5309 7.39025 14.4555C7.4267 14.4444 7.46498 14.4407 7.50284 14.4447ZM19.2653 9.23971C19.4631 9.38202 19.631 9.56275 19.7594 9.77141C19.8877 9.98008 19.974 10.2125 20.0131 10.4553C20.0131 10.5587 20.0322 10.7053 19.926 10.7613C19.8981 10.7748 19.8667 10.7788 19.8364 10.7726C19.8061 10.7663 19.7787 10.7503 19.7582 10.7269C19.6986 10.736 19.6378 10.7238 19.5861 10.6924C19.2483 10.5199 18.9148 10.3367 18.5622 10.1945C18.2414 10.0178 17.6445 10.0436 17.619 9.54791C17.7018 8.77417 18.8022 8.81943 19.2653 9.23971ZM9.70579 10.4553C9.74528 10.2124 9.8319 9.97989 9.96062 9.77123C10.0893 9.56256 10.2576 9.3819 10.4557 9.23971C10.9167 8.80865 12.0171 8.77417 12.0999 9.55869C12.0744 10.0436 11.4775 10.0178 11.1588 10.2053C10.8041 10.3475 10.4727 10.5307 10.1349 10.7031C10.0825 10.7346 10.021 10.7467 9.96071 10.7376C9.94056 10.7609 9.91347 10.7769 9.88356 10.7831C9.85365 10.7893 9.82256 10.7855 9.79501 10.7721C9.69729 10.7053 9.71216 10.5587 9.71641 10.4553H9.70579Z" fill="#FFE2CC"/>
<path d="M15.6915 18.3673C15.2583 18.5979 14.753 18.6459 14.2852 18.501C14.4976 18.6906 14.71 18.945 15.0138 18.9148C15.1603 18.8816 15.2974 18.8151 15.4148 18.7203C15.5322 18.6254 15.6268 18.5047 15.6915 18.3673Z" fill="#FFB9A1"/>
<path d="M11.0778 9.37549C10.8158 9.40103 10.5695 9.51384 10.3774 9.69631C10.1853 9.87878 10.058 10.1206 10.0156 10.3842C10.5242 10.0239 11.0896 9.7542 11.6875 9.58671C11.6238 9.34963 11.2775 9.35394 11.0778 9.37549Z" fill="#C66A2C"/>
<path d="M14.5227 35.4351C14.5101 35.4384 14.497 35.4384 14.4844 35.4351L14.3145 35.4157C13.9916 35.3898 13.6623 35.3553 13.3245 35.3036C12.8997 35.2605 12.4748 35.2195 12.0499 35.1721C11.0048 34.9394 9.9735 34.6465 8.96113 34.2949C6.97912 33.5729 4.97374 32.6828 3.37198 31.2775C2.41875 32.4201 1.64554 33.7055 1.07981 35.0881C0.856753 35.6441 0.631574 36.2002 0.463751 36.7735C0.463751 36.7864 0.463747 36.7972 0.453125 36.8101C3.00234 38.7973 6.20798 39.5516 9.32652 40.0129C11.0814 40.2662 12.8487 40.4209 14.6204 40.4763C14.6331 39.8749 14.6416 39.2715 14.6501 38.6701C14.665 37.808 14.6629 36.9567 14.6862 36.101C14.7054 35.8855 14.6862 35.67 14.7117 35.4544H14.6735L14.5227 35.4351Z" fill="#FFB864"/>
<path d="M13.9056 25.9259C14.4566 26.028 15.0199 26.0426 15.5753 25.969C15.7261 25.9281 15.8791 25.8893 16.0299 25.8613C17.5467 25.4539 18.9785 24.6802 20.013 23.4732C21.1751 22.1025 21.5001 20.3028 22.0227 18.6389C22.2946 17.6798 22.592 16.7207 22.8575 15.753C22.8812 15.6155 22.8947 15.4765 22.8979 15.337V15.2724C22.8379 15.2626 22.7789 15.2475 22.7216 15.2271C22.5686 15.1689 22.3519 15.0654 22.2011 14.9943C22.2139 16.6604 20.7502 18.2014 19.072 18.2833C17.3364 18.5096 15.7452 16.9319 15.7686 15.2249H15.758H15.7261C15.6444 15.1986 15.5675 15.1585 15.4988 15.1064C15.057 14.8047 14.3071 14.7939 13.9629 15.1064C14.0798 16.8651 12.444 18.5333 10.6617 18.3005C8.99407 18.2186 7.53677 16.6927 7.53465 15.0374L7.48366 15.0633C7.28185 15.1646 7.08428 15.2788 6.88672 15.3801C7.17988 16.5203 7.52403 17.6496 7.84055 18.7812C8.27604 20.1584 8.65205 21.5615 9.44656 22.7577C10.4769 24.2901 12.0829 25.566 13.9056 25.9259ZM13.9247 18.1367C14.0713 18.1367 14.2115 18.2445 14.3495 18.2704C14.6294 18.3424 14.9233 18.3349 15.1993 18.2488C15.4648 18.2057 15.6921 18.016 15.9513 17.9859C16.202 18.0872 16.0278 18.4363 15.9258 18.5958C15.8276 18.7859 15.6702 18.9378 15.4781 19.0278C15.286 19.1179 15.07 19.141 14.8636 19.0937C14.5405 18.9881 14.2596 18.7794 14.0628 18.4988C14.0288 18.461 14.0092 18.4121 14.0075 18.3609C13.9395 18.3178 13.8248 18.1928 13.9225 18.1367H13.9247ZM13.0558 21.1821C13.2045 21.1412 13.2683 21.2985 13.2024 21.3977C13.2683 21.4645 13.3256 21.5485 13.3872 21.6132C13.6614 21.9543 14.0475 22.1838 14.4749 22.2598C14.9164 22.2968 15.359 22.2023 15.7484 21.9879C16.1378 21.7735 16.4571 21.4486 16.6672 21.0528C16.6728 21.0367 16.6807 21.0215 16.6906 21.0076C16.6035 20.9235 16.5652 20.833 16.6906 20.7511C16.9179 20.6951 17.0623 20.9451 17.1728 21.1024C17.185 21.1236 17.1898 21.1483 17.1866 21.1727C17.1833 21.197 17.1721 21.2195 17.1547 21.2366C17.1374 21.2537 17.1149 21.2645 17.0908 21.2671C17.0667 21.2697 17.0425 21.2641 17.022 21.2511C16.9959 21.2288 16.9682 21.2087 16.9391 21.1908C16.9134 21.2455 16.8836 21.2981 16.8499 21.3481C16.3422 22.193 15.3629 22.7598 14.3835 22.5508C14.1186 22.5139 13.8638 22.4227 13.6348 22.2826C13.4058 22.1426 13.2074 21.9566 13.0516 21.7361L12.9921 21.6498C12.9699 21.6843 12.9362 21.7095 12.8973 21.721C12.8583 21.7324 12.8166 21.7294 12.7797 21.7123C12.631 21.5701 12.8986 21.2382 13.0558 21.1821Z" fill="#FFE2CC"/>
<path d="M4.26826 31.1719C4.19179 31.0986 4.01334 30.9391 3.84339 30.7602C3.82612 30.778 3.80767 30.7946 3.78817 30.8098C3.72444 30.8766 3.66495 30.9456 3.60547 31.0124C5.135 32.5211 7.06603 33.4479 9.08203 34.0966C7.25084 33.3423 5.528 32.325 4.26826 31.1719Z" fill="#F78834"/>
<path d="M18.6487 9.37549C18.4491 9.35394 18.1007 9.34963 18.0391 9.59102C18.6371 9.75808 19.2026 10.0278 19.7109 10.3885C19.67 10.1239 19.5434 9.88062 19.3511 9.69717C19.1587 9.51372 18.9116 9.40053 18.6487 9.37549Z" fill="#C66A2C"/>
<path d="M12.5094 12.783C11.8897 12.4158 11.166 12.2715 10.4554 12.3736C9.74488 12.4757 9.08908 12.8182 8.59427 13.3455C8.38315 13.5898 8.20525 13.8616 8.06531 14.1538C7.7679 15.9728 8.8237 17.6324 10.7505 17.7876C12.5859 17.9492 13.6014 16.2789 13.5631 14.6301C13.3953 13.9145 13.1106 13.2162 12.5094 12.783ZM11.3559 15.7767C11.1435 15.4577 11.2582 14.962 11.4813 14.6753C11.5223 14.6167 11.5793 14.5716 11.6453 14.5454C11.7113 14.5193 11.7834 14.5133 11.8527 14.5282C11.922 14.5431 11.9855 14.5782 12.0354 14.6292C12.0852 14.6803 12.1193 14.745 12.1334 14.8154C12.2588 15.2443 11.8785 16.1819 11.3559 15.7767Z" fill="#FFF4EE"/>
<path d="M22.2581 33.6656C21.4169 34.0914 20.5413 34.4433 19.6409 34.7173C19.6409 35.5471 19.5835 36.3769 19.5262 37.2045C19.4939 37.649 19.4076 38.0877 19.2691 38.5107C19.2245 39.0042 19.1119 39.5042 18.7954 39.3922C18.675 39.2362 18.6112 39.0428 18.6148 38.8447C18.4715 37.9138 18.4373 36.969 18.5128 36.0299C18.5383 35.8898 18.5277 35.3553 18.5999 34.9975C17.4786 35.2624 16.333 35.4069 15.1819 35.4286C15.1882 35.5212 15.1882 35.6141 15.1819 35.7066C15.1734 36.3532 15.1635 36.9998 15.1521 37.6464C15.1521 38.4783 15.1266 39.3103 15.0969 40.1422C15.0969 40.2263 15.0969 40.3577 15.082 40.4741C16.3935 40.5015 17.7056 40.4554 19.0121 40.3362C20.0503 40.2446 21.0815 40.0833 22.0987 39.8534C22.1476 39.3577 22.2241 38.862 22.2389 38.3619C22.3133 36.8037 22.2262 35.2325 22.2581 33.6656Z" fill="#EA63A1"/>
<path d="M23.073 27.0467C22.9094 26.9195 23.0135 26.7471 23.0156 26.5811C23.0011 26.1602 22.8883 25.7487 22.6864 25.3806C22.6693 25.3457 22.6502 25.3119 22.629 25.2793C22.4484 25.5444 22.2679 25.8095 22.0915 26.0746C21.911 26.2902 21.7686 26.7751 21.4351 26.5984C21.4072 26.5802 21.3832 26.5567 21.3643 26.529C21.3455 26.5014 21.3322 26.4702 21.3253 26.4374C21.3184 26.4045 21.318 26.3706 21.324 26.3375C21.3301 26.3045 21.3426 26.273 21.3608 26.2449C21.7262 25.6889 22.1128 25.1414 22.4803 24.5853C22.7458 24.1888 23.0008 23.7857 23.2344 23.3676C23.4487 22.9804 23.6313 22.576 23.7804 22.1585C23.9312 21.7315 24.0032 21.28 23.9928 20.8265C23.9928 20.5679 23.9928 20.3179 23.9928 20.0657C24.0417 19.9019 24.1288 19.7489 24.1904 19.5872C25.1633 17.1302 26.1767 14.587 26.1618 11.9036C26.0726 10.229 25.909 8.57157 25.2929 7.01545C24.9313 6.23432 24.4899 5.49388 23.9758 4.80629C22.8832 3.28696 21.3759 2.12559 19.64 1.46559C18.3112 0.896723 16.8903 0.581095 15.4487 0.53451C15.4162 0.531801 15.3835 0.531801 15.351 0.53451H15.1938H14.9049H14.6924C13.7315 0.571168 12.7801 0.741592 11.8649 1.041C9.82982 1.67035 7.80958 2.64453 6.39901 4.29764C6.01521 4.77585 5.6733 5.28716 5.37719 5.82574C3.8073 8.69442 3.57363 12.2377 4.23005 15.4146C4.53892 16.6806 4.94886 17.9189 5.4558 19.1174C5.58326 19.473 5.70434 19.8308 5.82968 20.195C5.96564 20.195 6.01875 20.4558 5.98689 20.6261C5.63 22.5788 6.95559 24.2405 8.21532 25.5488C8.30879 25.6501 8.40864 25.7492 8.49361 25.8591C8.52733 25.9094 8.54237 25.9701 8.53604 26.0306C8.52971 26.091 8.50243 26.1472 8.45906 26.1892C8.41568 26.2311 8.35904 26.256 8.29922 26.2595C8.23941 26.263 8.18031 26.2449 8.13247 26.2083C7.87542 25.9389 7.59926 25.6414 7.32097 25.3203C7.25885 25.381 7.2103 25.4545 7.17864 25.5358C6.9682 25.9176 6.84208 26.3412 6.80901 26.7773C6.80085 26.8793 6.76802 26.9778 6.71341 27.0639C6.61994 27.2148 6.41812 27.2407 6.2673 27.2795C6.01025 27.3506 5.75746 27.4174 5.51528 27.5058C5.31797 27.5738 5.12793 27.6619 4.94808 27.7687C4.11321 28.2623 3.64373 29.4002 4.03249 30.3184C4.08252 30.3767 4.13646 30.4314 4.19394 30.4822C4.78299 31.0508 5.42307 31.5624 6.10585 32.0103C6.65181 32.3487 7.2275 32.672 7.82232 32.9673C9.93604 34.0341 12.3026 34.8036 14.5862 34.9544C16.9995 35.032 19.3957 34.4242 21.5966 33.463C22.567 32.9979 23.4887 32.4347 24.3476 31.7818C24.7618 31.4779 25.1676 31.159 25.5691 30.8335C25.601 30.7624 25.6562 30.6956 25.6944 30.618C25.9451 30.1438 25.8601 29.5727 25.6562 29.0942C25.208 27.9648 24.0247 27.5898 23.073 27.0467ZM6.69854 21.1929C6.61569 21.0701 6.32465 20.5463 6.54771 20.6261C6.83237 20.8718 7.0788 21.1714 7.35497 21.4322C7.89667 21.9494 8.4575 22.5098 9.05444 23.0465C8.5454 22.2861 8.15289 21.4519 7.8903 20.5722C7.04056 17.8867 6.1717 15.1667 5.79782 12.3627C5.70587 11.2665 5.76883 10.1626 5.98476 9.08453C6.05769 8.63154 6.15915 8.18376 6.28854 7.74394C6.41175 7.34952 6.55621 7.06287 6.68792 7.21805C6.68792 7.21805 6.68792 7.23745 6.68792 7.24607C6.7559 7.62109 6.59232 8.0112 6.55408 8.38622C6.32413 9.55442 6.22437 10.7452 6.25668 11.936C6.30129 12.4683 6.37564 12.9942 6.46911 13.518C6.52859 13.0287 6.63056 12.5459 6.73041 12.0847C7.51217 9.18367 9.81283 6.76113 12.5639 5.6878C12.6446 5.65331 12.7274 5.61883 12.8082 5.59081C13.4998 5.3393 14.2322 5.22302 14.9665 5.24812C15.8303 5.27336 16.6872 5.41246 17.5157 5.66194C19.9608 6.45724 21.6858 8.67934 22.6949 10.9855C23.0281 11.8611 23.2481 12.7768 23.3492 13.7098C23.4759 13.0693 23.5632 12.4215 23.6105 11.77C23.7103 10.4294 23.4936 9.10177 23.2259 7.79136L23.2132 7.73317C23.2026 7.53703 23.0411 7.01976 23.2748 7.05209C23.4802 7.29753 23.6186 7.59329 23.6763 7.9099C23.7273 8.10603 23.7677 8.30432 23.8165 8.48752C24.0744 9.53298 24.1726 10.6124 24.1075 11.6881C23.9418 14.3219 23.0454 16.8328 22.3252 19.3566C21.9641 20.5981 21.6242 21.9063 20.9593 23.0206C21.7708 22.2232 22.5313 21.3653 23.296 20.5356C23.3385 20.4968 23.364 20.417 23.432 20.4321C23.4419 20.4349 23.451 20.4399 23.4588 20.4466C23.4667 20.4533 23.473 20.4616 23.4774 20.471C23.4818 20.4804 23.4842 20.4906 23.4845 20.501C23.4847 20.5114 23.4827 20.5217 23.4787 20.5312C23.4359 20.634 23.3869 20.7341 23.3322 20.8308C22.5079 22.2684 21.2418 23.4172 19.9842 24.4517C18.8795 25.3138 17.6665 26.1565 16.2857 26.3915C15.6443 26.5568 14.9797 26.61 14.3207 26.5488C13.9934 26.5196 13.6714 26.4471 13.3626 26.3333C12.6178 26.1257 11.9126 25.7928 11.2765 25.3483C10.5882 24.9413 9.94321 24.4632 9.35185 23.9215C8.42138 23.0788 7.43144 22.2404 6.69854 21.1929ZM17.2034 31.5836C14.0488 31.2624 11.0598 29.7106 9.22014 27.0575C9.15853 26.995 9.24138 26.9001 9.30299 26.9928C9.9934 27.6178 10.7242 28.1998 11.4549 28.7774C11.5038 28.8183 11.5569 28.8528 11.6058 28.8916C12.6988 29.3654 13.8867 29.5706 15.0727 29.4908C16.2764 29.386 17.4504 29.0557 18.5354 28.5166C18.9071 28.3355 19.2853 28.1631 19.6655 28.0015C19.7028 27.9839 19.7452 27.981 19.7845 27.9933C19.8237 28.0057 19.857 28.0324 19.878 28.0683C19.8996 28.1072 19.9053 28.1532 19.8937 28.1964C19.8822 28.2395 19.8544 28.2764 19.8164 28.2989C19.742 28.3485 19.6677 28.4024 19.5933 28.4541C19.1521 29.1195 18.559 29.667 17.8643 30.0497C17.1697 30.4325 16.3942 30.6393 15.6038 30.6525C15.4105 30.6525 15.2172 30.6352 15.0238 30.6288C16.7194 31.1445 18.5035 31.2892 20.2582 31.0534C21.1778 30.8278 22.073 30.5101 22.9307 30.105C22.9452 30.1 22.9609 30.1003 22.9753 30.1059C22.9896 30.1114 23.0015 30.1219 23.0091 30.1354C23.0166 30.1489 23.0193 30.1647 23.0166 30.18C23.0139 30.1953 23.0061 30.2092 22.9944 30.2193C21.2962 31.3837 19.2336 31.8696 17.2034 31.5836Z" fill="#EA63A1"/>
<path d="M18.982 38.9633C19.0287 38.8167 19.0733 38.668 19.1094 38.5193C19.1455 38.3706 19.154 38.1852 19.1774 38.0171L19.1965 37.7089C19.1965 37.7003 19.1989 37.6919 19.2034 37.6847C19.2079 37.6774 19.2144 37.6716 19.222 37.6679C19.3495 36.7024 19.4621 35.7282 19.5003 34.7626C19.3197 34.8165 19.1392 34.8661 18.9586 34.9135C18.9767 35.1761 18.9767 35.4397 18.9586 35.7023C18.9586 36.7886 18.948 37.877 18.982 38.9633Z" fill="#C94B93"/>
<path d="M26.4004 31.3939C26.3006 31.2538 26.1476 31.1374 26.0414 30.9995C25.829 31.2797 25.3128 31.5986 25.1917 31.7431C24.4144 32.387 23.5778 32.9536 22.6935 33.435C22.6935 33.4781 22.7041 33.5212 22.7062 33.5621C22.7062 34.3251 22.7402 35.0881 22.7466 35.851C22.7938 37.075 22.7369 38.3009 22.5766 39.515C22.5603 39.5931 22.5503 39.6724 22.5469 39.7521C24.4921 39.2744 26.3751 38.5661 28.1573 37.6421C28.5821 37.4265 29.0219 37.1938 29.4319 36.9438C28.8286 35.5601 28.3102 34.0988 27.4796 32.8379C27.149 32.3349 26.7887 31.8526 26.4004 31.3939Z" fill="#FFB864"/>
<path d="M17.4417 30.0749C18.0921 29.7544 18.6705 29.3018 19.1412 28.745C17.4417 29.7063 15.43 30.1999 13.4905 29.924L13.1484 29.8593C13.6361 30.1127 14.1416 30.3288 14.661 30.5059L15.3174 30.5296C16.0499 30.5393 16.7755 30.3839 17.4417 30.0749Z" fill="#C94B93"/>
<path d="M11.2824 25.3505C11.9188 25.7945 12.6239 26.1275 13.3685 26.3354C13.6773 26.4493 13.9994 26.5217 14.3266 26.551C14.9857 26.611 15.65 26.5578 16.2916 26.3936C17.6724 26.1609 18.8854 25.316 19.988 24.4539C21.2456 23.4107 22.5138 22.2706 23.3381 20.8351C23.3928 20.7384 23.4418 20.6383 23.4847 20.5356C23.489 20.5259 23.4913 20.5154 23.4912 20.5047C23.4912 20.4941 23.4889 20.4836 23.4844 20.4739C23.48 20.4643 23.4735 20.4557 23.4655 20.4489C23.4575 20.442 23.448 20.437 23.4379 20.4343C23.3678 20.4192 23.3444 20.4989 23.302 20.5377C22.5351 21.3675 21.7746 22.2253 20.9652 23.0228C21.6322 21.9106 21.97 20.6002 22.3333 19.3588C23.0428 16.8392 23.9478 14.3262 24.1135 11.6903C24.1784 10.6153 24.0802 9.53658 23.8224 8.49182C23.6928 8.0112 23.627 7.43142 23.2701 7.06502C23.0364 7.0327 23.2 7.54996 23.2085 7.7461C23.4825 9.07375 23.7077 10.4208 23.6057 11.7829C23.5585 12.4344 23.4712 13.0823 23.3444 13.7227C23.2436 12.7892 23.0244 11.8728 22.6923 10.9963C21.6811 8.68796 19.9561 6.47017 17.511 5.67487C15.9135 5.21795 14.1333 5.02828 12.5698 5.70073C9.81874 6.77837 7.51808 9.1966 6.73632 12.0976C6.63647 12.5588 6.5345 13.0438 6.47502 13.5287C6.38155 13.0071 6.3072 12.4813 6.26259 11.9489C6.22786 10.7585 6.32405 9.56791 6.54937 8.39915C6.58761 8.01335 6.76181 7.61462 6.67896 7.23098C6.37942 6.87967 6.02254 8.8065 5.97793 9.09531C5.76199 10.1741 5.69904 11.2787 5.79098 12.3756C6.16487 15.1775 7.03585 17.8996 7.88559 20.5873C8.14608 21.4668 8.53797 22.3005 9.04761 23.0594C8.46129 22.5184 7.89834 21.9624 7.34813 21.4451C7.07197 21.1843 6.82766 20.8847 6.54088 20.639C6.31782 20.5593 6.60885 21.083 6.6917 21.2059C7.4246 22.2533 8.41243 23.0853 9.35139 23.9366C9.94592 24.4734 10.593 24.9471 11.2824 25.3505ZM6.85528 13.865C7.14207 10.77 9.16657 7.95947 11.8921 6.54991C12.6186 6.18998 13.4386 5.83436 14.2777 5.77616C15.5901 5.69057 16.9038 5.92022 18.1122 6.44646C19.8541 7.30857 21.0714 8.89271 21.97 10.6062C22.5744 11.8848 22.8929 13.2831 22.9026 14.7012C22.7114 14.6365 22.5096 14.6042 22.3163 14.5525L22.2398 14.5309C22.1779 14.2156 22.0721 13.9108 21.9254 13.6257C20.6402 11.1558 16.3681 11.1558 15.8285 14.1947C15.8285 14.2788 15.7924 14.4447 15.7712 14.6258C15.2889 14.3154 14.522 14.3995 14.0292 14.5956L13.957 14.6301C13.9357 14.4555 13.9039 14.2874 13.8975 14.199C13.3579 11.1601 9.08796 11.1601 7.80061 13.63C7.67084 13.89 7.57036 14.164 7.50108 14.4469C7.46307 14.4435 7.4248 14.4479 7.38849 14.4598C7.21429 14.5417 6.99124 14.6409 6.7873 14.7508C6.79305 14.4544 6.81575 14.1586 6.85528 13.865ZM18.9874 17.7876C17.1541 17.9492 16.1387 16.2789 16.1748 14.6301C16.332 13.9145 16.6188 13.2162 17.2178 12.783C17.8386 12.413 18.5646 12.2672 19.2775 12.3694C19.9903 12.4715 20.6481 12.8156 21.1436 13.3455C21.3554 13.5892 21.5334 13.8611 21.6726 14.1538C21.9764 15.9664 20.9142 17.6324 18.9874 17.7876ZM13.5512 14.6301C13.5895 16.2853 12.574 17.9492 10.7386 17.7876C8.8118 17.6324 7.7645 15.9728 8.05341 14.1538C8.19335 13.8616 8.37126 13.5898 8.58237 13.3455C9.07787 12.8156 9.73565 12.4715 10.4485 12.3694C11.1614 12.2672 11.8874 12.413 12.5082 12.783C13.1093 13.2162 13.394 13.9145 13.5512 14.6301ZM7.83673 18.7682C7.5202 17.6367 7.17606 16.5073 6.8829 15.3672C7.08046 15.2594 7.27803 15.1517 7.47984 15.0504L7.53082 15.0245C7.53082 16.6798 8.99025 18.2057 10.6579 18.2876C12.4402 18.5204 14.0759 16.8522 13.9591 15.0935C14.3032 14.7917 15.0531 14.8025 15.495 15.0935C15.5637 15.1456 15.6405 15.1856 15.7223 15.212H15.7542H15.7648C15.7414 16.919 17.3325 18.4967 19.0681 18.2704C20.7464 18.1885 22.21 16.6474 22.1973 14.9814C22.3481 15.0525 22.5648 15.156 22.7178 15.2142C22.7751 15.2345 22.8341 15.2497 22.8941 15.2594V15.3241C22.8909 15.4636 22.8774 15.6026 22.8537 15.74C22.5882 16.7078 22.2908 17.6669 22.0189 18.626C21.4899 20.2899 21.1691 22.0895 20.0092 23.4603C18.9747 24.6672 17.5429 25.441 16.0261 25.8483C15.8752 25.8764 15.7223 25.9152 15.5715 25.9561C15.0161 26.0296 14.4527 26.0151 13.9017 25.913C12.0812 25.5531 10.4752 24.2771 9.4406 22.7275C8.64822 21.5442 8.27222 20.1411 7.83673 18.7682Z" fill="#440829"/>
<path d="M13.9946 18.3609C13.9963 18.4121 14.0158 18.461 14.0498 18.4988C14.2467 18.7794 14.5276 18.9881 14.8507 19.0937C15.0571 19.141 15.2731 19.1179 15.4652 19.0278C15.6572 18.9378 15.8146 18.7859 15.9129 18.5958C16.0148 18.4363 16.189 18.0872 15.9384 17.9859C15.6792 18.016 15.4519 18.2014 15.1863 18.2488C14.9104 18.3349 14.6164 18.3424 14.3366 18.2704C14.2006 18.2445 14.0604 18.1281 13.9117 18.1367C13.8225 18.1928 13.9372 18.3178 13.9946 18.3609ZM15.6941 18.3609C15.6294 18.4983 15.5348 18.619 15.4174 18.7138C15.3 18.8086 15.1629 18.8752 15.0164 18.9083C14.7169 18.9385 14.4959 18.6928 14.2877 18.4945C14.7541 18.6408 15.2585 18.5952 15.6919 18.3673L15.6941 18.3609Z" fill="#440829"/>
<path d="M12.9936 21.6498L13.0531 21.7361C13.2089 21.9566 13.4073 22.1426 13.6363 22.2826C13.8653 22.4227 14.1201 22.5139 14.385 22.5508C15.3686 22.7663 16.3437 22.193 16.8514 21.3481C16.8851 21.2981 16.915 21.2455 16.9406 21.1908C16.9697 21.2087 16.9974 21.2289 17.0235 21.2511C17.044 21.2641 17.0683 21.2697 17.0923 21.2671C17.1164 21.2645 17.1389 21.2537 17.1562 21.2366C17.1736 21.2195 17.1848 21.197 17.1881 21.1727C17.1913 21.1483 17.1865 21.1236 17.1743 21.1024C17.0638 20.9451 16.9194 20.6951 16.6921 20.7511C16.5689 20.833 16.6071 20.9235 16.6921 21.0076C16.6822 21.0215 16.6744 21.0367 16.6687 21.0528C16.4562 21.4487 16.1343 21.7729 15.7425 21.9854C15.3507 22.198 14.9061 22.2896 14.4636 22.249C14.0363 22.1731 13.6502 21.9435 13.376 21.6024C13.3144 21.5464 13.257 21.4623 13.1912 21.3869C13.2528 21.2791 13.1912 21.1218 13.0446 21.1714C12.898 21.2209 12.6197 21.5572 12.7854 21.7016C12.8207 21.7185 12.8606 21.7226 12.8986 21.7132C12.9365 21.7038 12.97 21.6814 12.9936 21.6498Z" fill="#440829"/>
<path d="M9.80329 10.7613C9.83085 10.7747 9.86194 10.7785 9.89185 10.7723C9.92175 10.7661 9.94884 10.7501 9.96899 10.7269C10.0292 10.736 10.0907 10.7238 10.1432 10.6924C10.481 10.52 10.8124 10.3368 11.1671 10.1945C11.4858 10.0178 12.0827 10.0436 12.1082 9.54792C12.0254 8.7634 10.9249 8.80866 10.464 9.22894C10.2659 9.37113 10.0976 9.55179 9.96891 9.76046C9.84018 9.96912 9.75356 10.2016 9.71407 10.4445C9.70982 10.5587 9.69495 10.7053 9.80329 10.7613ZM11.0779 9.3755C11.2776 9.35394 11.6239 9.34963 11.6855 9.59102C11.0876 9.75852 10.5222 10.0282 10.0136 10.3885C10.0553 10.1238 10.1824 9.88075 10.3751 9.69739C10.5677 9.51403 10.8149 9.4008 11.0779 9.3755Z" fill="#440829"/>
<path d="M11.483 14.6732C11.26 14.9598 11.1474 15.4556 11.3577 15.7745C11.8781 16.1711 12.2584 15.2422 12.1352 14.8133C12.1211 14.7428 12.087 14.6781 12.0371 14.6271C11.9872 14.576 11.9237 14.5409 11.8544 14.526C11.7851 14.5111 11.713 14.5171 11.647 14.5433C11.5811 14.5694 11.524 14.6146 11.483 14.6732Z" fill="#440829"/>
<path d="M18.5604 10.1945C18.913 10.3367 19.2466 10.5199 19.5843 10.6924C19.636 10.7238 19.6968 10.736 19.7564 10.7269C19.7769 10.7503 19.8044 10.7663 19.8346 10.7726C19.8649 10.7788 19.8964 10.7748 19.9242 10.7613C20.0304 10.7053 20.0156 10.5587 20.0113 10.4553C19.9722 10.2125 19.886 9.98008 19.7576 9.77142C19.6292 9.56275 19.4613 9.38202 19.2636 9.23971C18.8004 8.80865 17.7 8.77417 17.6172 9.55869C17.6427 10.0436 18.2396 10.0178 18.5604 10.1945ZM18.6496 9.37549C18.9118 9.40032 19.1585 9.51288 19.3508 9.69548C19.5431 9.87807 19.6701 10.1203 19.7118 10.3842C19.2034 10.0235 18.638 9.75377 18.0399 9.58671C18.1015 9.34963 18.4499 9.35394 18.6496 9.37549Z" fill="#440829"/>
<path d="M17.5944 14.8154C17.469 15.2465 17.8493 16.1733 18.3697 15.7767C18.5822 15.4577 18.4696 14.962 18.2444 14.6753C18.2037 14.6165 18.1469 14.5711 18.081 14.5448C18.0151 14.5185 17.943 14.5125 17.8737 14.5274C17.8045 14.5423 17.741 14.5776 17.6914 14.6288C17.6417 14.68 17.608 14.7449 17.5944 14.8154Z" fill="#440829"/>
<path d="M22.927 30.0964C22.0708 30.5035 21.177 30.8241 20.2588 31.0534C18.5001 31.2884 16.7123 31.1414 15.0138 30.6223C15.2071 30.6223 15.4004 30.6352 15.5938 30.646C16.3853 30.6321 17.1618 30.4243 17.8571 30.0404C18.5525 29.6566 19.1461 29.1079 19.5875 28.4412C19.6619 28.3873 19.7362 28.3334 19.8127 28.2838C19.8503 28.2613 19.8776 28.2247 19.8887 28.182C19.8998 28.1392 19.8939 28.0937 19.8722 28.0554C19.8513 28.0194 19.8182 27.9924 19.7791 27.9793C19.7401 27.9662 19.6977 27.968 19.6598 27.9842C19.2788 28.148 18.9014 28.3212 18.5275 28.5037C17.4432 29.0421 16.2698 29.3717 15.0669 29.4757C13.8809 29.5556 12.6931 29.3503 11.6 28.8765L11.4492 28.7623C10.7184 28.1847 9.98549 27.6027 9.29507 26.9799C9.23347 26.885 9.15062 26.9799 9.21435 27.0445C11.054 29.7041 14.0409 31.256 17.1976 31.5706C19.2292 31.8552 21.2926 31.3653 22.9886 30.1956C23.0545 30.1654 22.995 30.0662 22.927 30.0964ZM13.1401 29.8593L13.4822 29.924C15.4217 30.1999 17.4334 29.7085 19.1329 28.745C18.6622 29.3018 18.0838 29.7544 17.4334 30.0749C16.7673 30.3847 16.0418 30.5407 15.3091 30.5318L14.6527 30.5081C14.1333 30.3303 13.6277 30.1135 13.1401 29.8593Z" fill="#440829"/>
<path d="M29.8587 36.8209C29.7058 36.1743 29.3871 35.5751 29.1407 34.9652C28.7948 34.1584 28.39 33.3789 27.9298 32.6332C27.7832 32.4327 26.7954 30.8702 26.2558 30.5727C26.3044 30.4034 26.335 30.2292 26.3472 30.0533C26.3939 28.2536 24.7922 27.2514 23.3412 26.6329C23.3965 26.0488 23.2966 25.3397 22.8951 24.8892C23.3476 24.2378 23.7408 23.546 24.0699 22.8223C24.3718 22.072 24.485 21.2573 24.3992 20.4515C24.533 20.0808 24.7242 19.723 24.858 19.3458C25.7396 16.9966 26.6764 14.5633 26.6743 12.0179C26.6459 10.4026 26.3979 8.799 25.9372 7.25254C24.875 4.64895 22.9525 2.29538 20.3395 1.21774C18.9139 0.542002 17.3733 0.151241 15.8019 0.0668135H15.7722C14.5252 -0.0905223 13.223 0.133627 12.0206 0.469852C9.5691 1.1811 7.09424 2.39021 5.57958 4.5455C3.56995 7.42496 3.0771 11.1256 3.55295 14.559C3.7845 16.197 4.35596 17.7509 4.96352 19.2769C5.14409 19.7791 5.31828 20.2899 5.49461 20.7964C5.16321 22.249 6.02781 23.734 7.01776 24.9517C6.99864 24.9755 6.97952 24.997 6.96465 25.0186C6.51641 25.4755 6.52278 26.1134 6.43994 26.6997C5.60932 26.9152 4.69372 27.1307 4.10316 27.8097C3.57844 28.4239 3.21731 29.4067 3.48285 30.202C3.49454 30.2852 3.52588 30.3644 3.5742 30.4326C3.25572 30.6909 2.97027 30.9885 2.72446 31.3185C1.72608 32.6211 0.937382 34.076 0.387678 35.629C0.351565 35.8295 0.0690272 36.3748 0.0562812 36.7067C0.0350625 36.7284 0.0209673 36.7563 0.0159181 36.7864C0.0131494 36.8694 0.0300293 36.9519 0.0651434 37.0269C0.100257 37.1019 0.152585 37.1672 0.217733 37.2175C0.443545 37.4286 0.687384 37.6191 0.946382 37.7865C4.82756 40.2737 9.71143 40.6918 14.1959 40.9806C18.553 41.1746 22.9843 40.6164 26.9909 38.7951C27.9999 38.3604 28.9737 37.8458 29.9033 37.2563C29.943 37.2333 29.9752 37.199 29.9961 37.1578C30.017 37.1165 30.0256 37.07 30.0208 37.0238C30.0161 36.9777 29.9983 36.934 29.9695 36.8979C29.9407 36.8619 29.9022 36.8351 29.8587 36.8209ZM3.79088 30.8098C3.81039 30.7946 3.82884 30.778 3.84611 30.7602C4.01606 30.9391 4.1945 31.0986 4.27098 31.1719C5.53072 32.325 7.24506 33.3423 9.08475 34.0966C7.06874 33.45 5.13771 32.519 3.60819 31.0124C3.66767 30.9456 3.72715 30.8766 3.79088 30.8098ZM14.6866 36.0967C14.6633 36.9588 14.6654 37.8102 14.6505 38.6658C14.6505 39.2672 14.6335 39.8706 14.6208 40.472C12.8491 40.4166 11.0818 40.2619 9.32693 40.0086C6.20839 39.5473 2.9985 38.793 0.453533 36.8058C0.453533 36.7929 0.453537 36.7821 0.464158 36.7692C0.631982 36.1959 0.857161 35.6398 1.08022 35.0837C1.64556 33.6997 2.41878 32.4128 3.37239 31.2689C4.97414 32.6828 6.98377 33.5729 8.96154 34.2863C9.9739 34.6379 11.0052 34.9308 12.0503 35.1635C12.4752 35.2109 12.9001 35.2519 13.3249 35.295C13.6627 35.3467 13.992 35.3812 14.3149 35.407L14.4848 35.4264C14.4974 35.4298 14.5105 35.4298 14.5231 35.4264H14.6739H14.7121C14.6866 35.6614 14.7058 35.8877 14.6866 36.0967ZM14.5826 34.9372C11.6552 34.7454 8.5919 33.5341 6.10005 31.9931C5.41683 31.5458 4.77669 31.0342 4.18813 30.465C4.13067 30.415 4.07672 30.361 4.02668 30.3033C3.63793 29.3809 4.10741 28.245 4.94227 27.7515C5.35888 27.5285 5.80339 27.3639 6.26362 27.2622C6.4102 27.217 6.61413 27.1932 6.7076 27.0467C6.76212 26.9603 6.79561 26.8621 6.80532 26.76C6.83547 26.3237 6.96102 25.8996 7.17284 25.5186C7.20544 25.4377 7.25386 25.3644 7.31517 25.3031C7.59134 25.6242 7.86962 25.9216 8.12667 26.191C8.17462 26.2262 8.23319 26.2431 8.2922 26.239C8.3512 26.2348 8.40689 26.2098 8.44959 26.1682C8.49229 26.1267 8.51928 26.0713 8.52588 26.0117C8.53247 25.9521 8.51825 25.892 8.48568 25.8419C8.39983 25.7336 8.30761 25.6307 8.20952 25.5337C6.94978 24.2233 5.62632 22.5615 5.98108 20.6088C6.01295 20.4429 5.95771 20.1929 5.82388 20.1778C5.69854 19.82 5.57746 19.4622 5.45 19.1001C4.94183 17.9029 4.53186 16.6651 4.22425 15.3995C3.45098 11.6364 3.92047 7.34521 6.39958 4.28902C7.81227 2.63591 9.8304 1.66173 11.8634 1.03023C12.7797 0.73272 13.7316 0.563052 14.693 0.52589H14.9055H15.1944H15.3516C15.3851 0.527381 15.4185 0.531706 15.4514 0.538821C16.8919 0.585568 18.3117 0.899679 19.6406 1.46559C22.2047 2.38806 24.1506 4.54334 25.2999 7.01546C25.9138 8.57157 26.0795 10.2268 26.1666 11.9036C26.1836 14.587 25.1703 17.1302 24.1973 19.5872C24.1357 19.7489 24.0486 19.9019 23.9998 20.0679C23.9998 20.3179 23.9998 20.5657 23.9998 20.8265C24.0295 21.7447 23.662 22.568 23.235 23.3698C22.6721 24.3677 21.9901 25.2901 21.3613 26.2449C21.3256 26.3018 21.3131 26.3705 21.3266 26.4366C21.3401 26.5026 21.3785 26.5606 21.4336 26.5984C21.7713 26.7751 21.9115 26.2816 22.0921 26.0746C22.2684 25.8095 22.4511 25.5445 22.6317 25.2794C22.8653 25.6706 22.9976 26.1155 23.0162 26.5725C23.0162 26.7406 22.91 26.9109 23.0736 27.0402C24.0253 27.5812 25.1979 27.9562 25.6525 29.0791C25.8649 29.5554 25.9436 30.1266 25.6908 30.6029C25.6525 30.6719 25.5973 30.7365 25.5633 30.8184C24.3312 31.8228 23.0353 32.7754 21.5929 33.4479C19.3921 34.4091 16.9937 35.0148 14.5826 34.9329V34.9372ZM18.9608 34.9135C19.1414 34.8661 19.322 34.8165 19.5025 34.7626C19.4643 35.7368 19.3517 36.7024 19.2242 37.6679C19.2166 37.6716 19.2102 37.6774 19.2056 37.6847C19.2011 37.6919 19.1987 37.7003 19.1988 37.7089L19.1796 38.0171C19.1563 38.1852 19.135 38.3533 19.1117 38.5193C19.0883 38.6852 19.0309 38.8167 18.9842 38.9633C18.9502 37.8856 18.9608 36.7886 18.9693 35.7023C18.9846 35.4395 18.9817 35.1759 18.9608 34.9135ZM22.2323 38.3619C22.2175 38.862 22.141 39.3577 22.0921 39.8534C21.0744 40.0863 20.0425 40.2505 19.0033 40.3448C17.6968 40.464 16.3848 40.5101 15.0733 40.4827C15.0839 40.3599 15.0733 40.2349 15.0881 40.1508C15.1179 39.3189 15.1328 38.4869 15.1434 37.655C15.1533 37.0099 15.1632 36.3633 15.1731 35.7152C15.1794 35.6227 15.1794 35.5298 15.1731 35.4372C16.3242 35.4155 17.4699 35.271 18.5912 35.0062C18.519 35.3639 18.5296 35.8984 18.5041 36.0385C18.4285 36.9776 18.4628 37.9224 18.6061 38.8533C18.6025 39.0515 18.6662 39.2448 18.7866 39.4008C19.1032 39.5129 19.2115 39.0128 19.2604 38.5193C19.3988 38.0963 19.4852 37.6576 19.5174 37.2132C19.5748 36.3855 19.6279 35.5558 19.6321 34.726C20.5357 34.4503 21.4141 34.0963 22.2578 33.6677C22.2259 35.2325 22.313 36.8037 22.2323 38.3813V38.3619ZM28.155 37.6399C26.3729 38.564 24.4898 39.2722 22.5446 39.7499C22.548 39.6702 22.558 39.5909 22.5743 39.5129C22.7346 38.2987 22.7915 37.0729 22.7443 35.8489C22.7443 35.0859 22.7061 34.3229 22.7039 33.56C22.7039 33.519 22.7039 33.4759 22.6912 33.4328C23.5755 32.9514 24.4121 32.3848 25.1894 31.7409C25.3126 31.5965 25.8267 31.2775 26.0391 30.9973C26.1454 31.1353 26.2983 31.2516 26.3982 31.3917C26.7859 31.8526 27.1455 32.337 27.4752 32.8422C28.3058 34.1031 28.8242 35.5644 29.4275 36.9481C29.0196 37.2002 28.582 37.4265 28.155 37.6485V37.6399Z" fill="#440829"/>
<path d="M6.5477 8.38622C6.58594 8.0112 6.74952 7.62109 6.68154 7.24607L6.70066 7.22452C6.75164 7.5866 6.62631 7.94869 6.61781 8.31725C6.60931 8.6858 6.78563 9.11255 7.1404 9.16643C7.49516 9.22031 7.80106 8.84529 8.01987 8.51984C8.67028 7.59105 9.53734 6.8402 10.5436 6.33438C11.2655 5.98681 12.0278 5.73335 12.8124 5.58003C12.7317 5.60805 12.6488 5.64254 12.5681 5.67702C9.81707 6.75466 7.5164 9.17289 6.73465 12.0739C6.6348 12.5351 6.53283 13.0179 6.47335 13.5072C6.37988 12.9834 6.30553 12.4575 6.26091 11.9252C6.22591 10.7384 6.32211 9.5513 6.5477 8.38622Z" fill="#C94B93"/>
<path d="M17.5141 5.66194C16.6856 5.41247 15.8287 5.27336 14.9648 5.24812C15.5437 5.19114 16.1279 5.23561 16.6919 5.3796C18.9799 6.02618 21.1913 7.00253 22.4744 9.02634C22.57 9.17721 22.6996 9.35179 22.878 9.33455C23.0905 9.31084 23.1648 9.02418 23.1754 8.79788L23.2264 7.79998C23.4941 9.1104 23.7108 10.4381 23.6109 11.7786C23.5637 12.4301 23.4764 13.078 23.3496 13.7184C23.2486 12.7854 23.0286 11.8697 22.6953 10.9941C21.6778 8.67503 19.9528 6.45724 17.5141 5.66194Z" fill="#C94B93"/>
<path d="M23.887 30.2602C23.9833 30.2005 24.0644 30.1187 24.1239 30.0213C24.1833 29.9239 24.2193 29.8137 24.229 29.6996C24.2388 29.5855 24.2219 29.4706 24.1798 29.3644C24.1377 29.2581 24.0716 29.1633 23.9868 29.0877C23.7276 28.7386 23.4493 28.3765 23.0521 28.2105C22.6548 28.0446 22.1726 28.1092 21.7775 27.9153C21.6943 27.8807 21.6254 27.8184 21.582 27.7385C21.5506 27.6383 21.5544 27.5302 21.5927 27.4325C21.8051 26.6846 22.2703 26.0445 22.6761 25.3806C22.659 25.3457 22.6399 25.3119 22.6187 25.2794C22.4382 25.5445 22.2576 25.8095 22.0813 26.0746C21.9007 26.2902 21.7584 26.7751 21.4248 26.5984C21.397 26.5802 21.3729 26.5567 21.354 26.529C21.3352 26.5014 21.3219 26.4703 21.315 26.4374C21.3081 26.4045 21.3077 26.3706 21.3138 26.3375C21.3199 26.3045 21.3323 26.273 21.3505 26.2449C21.7159 25.6889 22.1025 25.1414 22.47 24.5853C21.6769 25.2546 20.7988 25.8128 19.8592 26.2449C19.5405 26.3936 19.1369 26.5165 18.8629 26.2945C20.5942 25.0315 22.3447 23.7469 23.7701 22.1585C23.9209 21.7315 23.9929 21.28 23.9826 20.8265C23.9826 20.5679 23.9826 20.3179 23.9826 20.0657C24.0314 19.9019 24.1185 19.7489 24.1801 19.5872C25.1531 17.1302 26.1664 14.587 26.1515 11.9036C26.0623 10.229 25.8987 8.57157 25.2827 7.01546C24.921 6.23433 24.4796 5.49388 23.9656 4.80629C24.5285 5.99601 24.896 7.25254 24.7728 8.55218C24.7752 8.61522 24.7633 8.67797 24.7378 8.73555C24.7124 8.79312 24.6742 8.84396 24.6262 8.88409C24.4499 8.9897 24.246 8.80003 24.1313 8.62977C23.9698 8.39268 23.8126 8.15345 23.6639 7.9099C23.7149 8.10603 23.7552 8.30432 23.8041 8.48752C24.062 9.53298 24.1602 10.6124 24.0951 11.6881C23.9294 14.3219 23.033 16.8328 22.3128 19.3566C21.9517 20.5981 21.6118 21.9063 20.9469 23.0206C21.7584 22.2232 22.5189 21.3653 23.2836 20.5356C23.3261 20.4968 23.3516 20.417 23.4196 20.4321C23.4295 20.435 23.4386 20.4399 23.4464 20.4466C23.4543 20.4533 23.4606 20.4616 23.465 20.471C23.4694 20.4804 23.4718 20.4906 23.4721 20.501C23.4723 20.5114 23.4703 20.5217 23.4663 20.5313C23.4235 20.634 23.3745 20.7341 23.3198 20.8308C22.4955 22.2684 21.2294 23.4172 19.9718 24.4517C18.8671 25.3138 17.6541 26.1565 16.2733 26.3915C15.6319 26.5568 14.9673 26.61 14.3083 26.5488C13.981 26.5196 13.659 26.4471 13.3502 26.3333C12.6054 26.1257 11.9002 25.7928 11.2641 25.3483C10.5758 24.9413 9.9308 24.4632 9.33944 23.9215C8.4026 23.0594 7.41266 22.2382 6.67976 21.1908C6.59691 21.0679 6.30588 20.5442 6.52893 20.6239C6.81359 20.8696 7.06002 21.1692 7.33618 21.43C7.87789 21.9473 8.43872 22.5077 9.03566 23.0443C8.52661 22.284 8.1341 21.4497 7.87151 20.57C7.02178 17.8846 6.15292 15.1646 5.77904 12.3606C5.6871 11.2644 5.75005 10.1605 5.96598 9.08238C6.03891 8.62939 6.14038 8.18161 6.26976 7.74179C5.83002 8.36682 5.51774 9.091 5.14598 9.76991C5.12049 9.81086 5.095 9.85828 5.04614 9.87121C5.01495 9.87628 4.98299 9.87156 4.95451 9.8577C4.92604 9.84383 4.90242 9.82148 4.88681 9.79362C4.76662 9.60129 4.71351 9.37362 4.73598 9.14704C4.77533 8.00726 4.99037 6.88076 5.37329 5.8085C3.8034 8.67718 3.56972 12.2205 4.22614 15.3974C4.53502 16.6633 4.94495 17.9017 5.45189 19.1001C5.57935 19.4558 5.70044 19.8135 5.82577 20.1778C5.96173 20.1778 6.01484 20.4386 5.98297 20.6088C5.62608 22.5615 6.95167 24.2233 8.21141 25.5315C8.30488 25.6328 8.40473 25.732 8.4897 25.8419C8.52342 25.8921 8.53846 25.9529 8.53214 26.0133C8.52581 26.0738 8.49853 26.13 8.45515 26.1719C8.41178 26.2139 8.35513 26.2388 8.29531 26.2423C8.2355 26.2458 8.1764 26.2276 8.12856 26.191C7.87152 25.9216 7.59535 25.6242 7.31706 25.3031C7.25493 25.3637 7.20639 25.4372 7.17473 25.5186C6.96429 25.9003 6.83816 26.3239 6.80509 26.76C6.79694 26.8621 6.76411 26.9606 6.7095 27.0467C6.61603 27.1976 6.41422 27.2234 6.26339 27.2622C6.00634 27.3333 5.75354 27.4002 5.51137 27.4885C5.70434 27.5387 5.90561 27.5468 6.10189 27.5122C6.29817 27.4777 6.48499 27.4013 6.65002 27.2881C6.79719 27.1466 6.97046 27.036 7.15986 26.9626C7.58473 26.8613 7.91188 27.3075 8.14981 27.6782C9.02024 28.96 10.1759 30.0158 11.5233 30.7602C12.8662 31.5013 14.2825 32.0966 15.7486 32.5362C13.1755 33.322 10.4531 33.464 7.81416 32.95C9.92788 34.0169 12.2944 34.7863 14.5781 34.9372C16.9913 35.0148 19.3876 34.407 21.5884 33.4457C22.5588 32.9807 23.4805 32.4174 24.3394 31.7646C23.6855 31.8561 23.0261 31.9015 22.3659 31.9004C22.8758 31.3551 23.3835 30.8055 23.887 30.2602ZM17.1953 31.5836C14.0406 31.2624 11.0517 29.7106 9.21198 27.0575C9.15038 26.995 9.23322 26.9001 9.29483 26.9928C9.98524 27.6178 10.716 28.1998 11.4468 28.7774C11.4957 28.8183 11.5488 28.8528 11.5976 28.8916C12.6907 29.3654 13.8785 29.5706 15.0646 29.4908C16.2682 29.386 17.4423 29.0557 18.5272 28.5166C18.899 28.3355 19.2771 28.1631 19.6574 28.0015C19.6947 27.9839 19.737 27.981 19.7763 27.9933C19.8156 28.0057 19.8489 28.0324 19.8698 28.0683C19.8914 28.1072 19.8971 28.1533 19.8856 28.1964C19.8741 28.2395 19.8463 28.2764 19.8082 28.2989C19.7339 28.3485 19.6595 28.4024 19.5852 28.4541C19.1446 29.1187 18.5524 29.6655 17.859 30.0483C17.1655 30.431 16.3913 30.6383 15.602 30.6525C15.4087 30.6525 15.2154 30.6352 15.0221 30.6288C16.7176 31.1445 18.5017 31.2893 20.2565 31.0534C21.176 30.8278 22.0712 30.5101 22.9289 30.105C22.9434 30.1 22.9592 30.1003 22.9735 30.1059C22.9878 30.1114 22.9998 30.1219 23.0073 30.1354C23.0149 30.1489 23.0175 30.1647 23.0148 30.18C23.0122 30.1953 23.0043 30.2092 22.9926 30.2193C21.2945 31.3837 19.2318 31.8696 17.2016 31.5836H17.1953Z" fill="#C94B93"/>
</g>
<defs>
<clipPath id="clip0_660_8053">
<rect width="30" height="41" fill="white"/>
</clipPath>
</defs>
</svg>
