<svg width="33" height="33" viewBox="0 0 33 33" fill="none" xmlns="http://www.w3.org/2000/svg">
<circle cx="16.5" cy="16.5" r="16.5" fill="white"/>
<path d="M10.778 6.35006C10.8547 6.35006 10.9287 6.37976 10.9831 6.43106L13.688 9.05006H10.4893V6.62951C10.4893 6.47561 10.619 6.35006 10.778 6.35006ZM9.09426 6.62951V9.05006H7.69786C7.59952 9.05001 7.50229 9.07009 7.41253 9.10897C7.32278 9.14785 7.24253 9.20465 7.17706 9.27566C7.11159 9.34667 7.06237 9.43027 7.03264 9.52098C7.00291 9.6117 6.99334 9.70747 7.00455 9.80201L8.88501 25.5606C8.96369 26.2183 9.28939 26.8252 9.80019 27.2657C10.311 27.7063 10.9713 27.9498 11.6555 27.9501H20.4816C21.1659 27.9498 21.8261 27.7063 22.3369 27.2657C22.8477 26.8252 23.1734 26.2183 23.2521 25.5606L25.1312 9.80201C25.1424 9.70747 25.1328 9.6117 25.1031 9.52098C25.0734 9.43027 25.0241 9.34667 24.9587 9.27566C24.8932 9.20465 24.8129 9.14785 24.7232 9.10897C24.6334 9.07009 24.5362 9.05001 24.4379 9.05006H23.0443V7.02506C23.0443 6.488 22.8238 5.97293 22.4314 5.59317C22.039 5.21341 21.5067 5.00006 20.9518 5.00006H16.7668C16.2118 5.00006 15.6796 5.21341 15.2871 5.59317C14.8947 5.97293 14.6743 6.488 14.6743 7.02506V8.09561L11.968 5.47661C11.7323 5.24883 11.4322 5.09379 11.1055 5.03111C10.7788 4.96843 10.4402 5.00092 10.1326 5.12448C9.82495 5.24804 9.56211 5.45711 9.37728 5.72525C9.19246 5.99338 9.09397 6.30719 9.09426 6.62951ZM16.0693 9.05006V7.02506C16.0693 6.84604 16.1427 6.67435 16.2736 6.54776C16.4044 6.42118 16.5818 6.35006 16.7668 6.35006H20.9518C21.1367 6.35006 21.3142 6.42118 21.445 6.54776C21.5758 6.67435 21.6493 6.84604 21.6493 7.02506V9.05006H16.0693ZM8.48046 10.4001H23.6553L21.8669 25.4053C21.8275 25.7342 21.6647 26.0376 21.4093 26.2579C21.1539 26.4782 20.8238 26.5999 20.4816 26.6001H11.6555C11.3134 26.5999 10.9832 26.4782 10.7278 26.2579C10.4724 26.0376 10.3096 25.7342 10.2702 25.4053L8.48046 10.4001ZM17.8828 14.1126C17.6991 13.8047 17.4349 13.5491 17.1169 13.3714C16.7988 13.1937 16.4379 13.1002 16.0707 13.1002C15.7034 13.1002 15.3425 13.1937 15.0244 13.3714C14.7064 13.5491 14.4422 13.8047 14.2585 14.1126L13.628 15.1683C13.537 15.3232 13.513 15.5067 13.5612 15.6787C13.6095 15.8508 13.7261 15.9973 13.8856 16.0864C14.0451 16.1756 14.2346 16.2 14.4126 16.1545C14.5907 16.1089 14.7429 15.997 14.8361 15.8433L15.4666 14.7876C15.5278 14.685 15.6159 14.5998 15.7219 14.5405C15.8279 14.4813 15.9482 14.4501 16.0707 14.4501C16.1931 14.4501 16.3134 14.4813 16.4194 14.5405C16.5254 14.5998 16.6135 14.685 16.6747 14.7876L17.3038 15.8433C17.3963 15.9985 17.5487 16.1118 17.7276 16.1582C17.9064 16.2047 18.0969 16.1805 18.2573 16.091C18.4177 16.0015 18.5348 15.854 18.5828 15.6809C18.6308 15.5079 18.6058 15.3235 18.5133 15.1683L17.8828 14.1126ZM19.0908 18.8376L18.9402 18.5865C18.8477 18.4313 18.8227 18.2468 18.8707 18.0738C18.9187 17.9007 19.0358 17.7532 19.1962 17.6637C19.3565 17.5742 19.5471 17.55 19.7259 17.5965C19.9047 17.643 20.0571 17.7563 20.1496 17.9115L20.2989 18.1626C20.4826 18.4705 20.5793 18.8198 20.5792 19.1754C20.5792 19.531 20.4824 19.8802 20.2986 20.1881C20.1147 20.496 19.8504 20.7516 19.5321 20.9293C19.2138 21.1069 18.8528 21.2003 18.4854 21.2001H17.4643C17.2793 21.2001 17.1019 21.1289 16.9711 21.0024C16.8402 20.8758 16.7668 20.7041 16.7668 20.5251C16.7668 20.346 16.8402 20.1744 16.9711 20.0478C17.1019 19.9212 17.2793 19.8501 17.4643 19.8501H18.4854C18.6078 19.8501 18.7281 19.8189 18.8341 19.7596C18.9402 19.7004 19.0282 19.6152 19.0894 19.5126C19.1507 19.4099 19.1829 19.2935 19.1829 19.1751C19.1829 19.0566 19.1507 18.9402 19.0894 18.8376M14.6743 19.8501C14.8592 19.8501 15.0367 19.9212 15.1675 20.0478C15.2983 20.1744 15.3718 20.346 15.3718 20.5251C15.3718 20.7041 15.2983 20.8758 15.1675 21.0024C15.0367 21.1289 14.8592 21.2001 14.6743 21.2001H13.6531C13.2857 21.2003 12.9247 21.1069 12.6064 20.9293C12.2881 20.7516 12.0238 20.496 11.84 20.1881C11.6561 19.8802 11.5593 19.531 11.5593 19.1754C11.5592 18.8198 11.6559 18.4705 11.8396 18.1626L11.9903 17.9115C12.0834 17.7577 12.2356 17.6458 12.4137 17.6003C12.5918 17.5547 12.7812 17.5792 12.9408 17.6683C13.1003 17.7574 13.2169 17.904 13.2651 18.076C13.3134 18.248 13.2894 18.4315 13.1983 18.5865L13.0491 18.8376C12.9879 18.9402 12.9556 19.0566 12.9556 19.1751C12.9556 19.2935 12.9879 19.4099 13.0491 19.5126C13.1103 19.6152 13.1983 19.7004 13.3044 19.7596C13.4104 19.8189 13.5307 19.8501 13.6531 19.8501H14.6743Z" fill="#F07851"/>
</svg>
