  <svg xmlns="http://www.w3.org/2000/svg" viewBox="0 0 32 32" fill="#ffffff">
    <g id="Layer_7" data-name="Layer 7">
      <path d="M29.88,21.4,27.41,9.57a5.26,5.26,0,0,0-5.1-4H9.69a5.26,5.26,0,0,0-5.1,4,.06.06,0,0,1,0,0L2.13,21.36A4.21,4.21,0,0,0,6.21,26.6H7.89a4.23,4.23,0,0,0,3.63-2.07l.39-.67a3.45,3.45,0,0,1,3-1.7h2.19A3.41,3.41,0,0,1,20,23.79l.5.81a4.19,4.19,0,0,0,3.58,2h1.73a4.21,4.21,0,0,0,4.09-5.2Zm-2.35,2.35a2.2,2.2,0,0,1-1.74.85H24.06a2.17,2.17,0,0,1-1.87-1.05l-.5-.81a5.42,5.42,0,0,0-4.63-2.58H14.87a5.47,5.47,0,0,0-4.68,2.68l-.4.67a2.21,2.21,0,0,1-1.9,1.09H6.21a2.21,2.21,0,0,1-2.13-2.79L6.54,10A3.25,3.25,0,0,1,9.69,7.59H22.31A3.26,3.26,0,0,1,25.46,10l2.47,11.83A2.19,2.19,0,0,1,27.53,23.75Z" />
      <path d="M13.27,13h-1v-1a1,1,0,0,0-2,0v1h-1a1,1,0,0,0,0,2h1v1a1,1,0,0,0,2,0V15h1a1,1,0,0,0,0-2Z" />
      <path d="M19.58,11.12a1.32,1.32,0,1,0,1.32,1.32A1.32,1.32,0,0,0,19.58,11.12Z" />
      <path d="M22.42,13.76a1.32,1.32,0,1,0,1.32,1.32A1.32,1.32,0,0,0,22.42,13.76Z" />
    </g>
  </svg>
