<svg xmlns="http://www.w3.org/2000/svg" viewBox="0 0 32 32"><g id="Layer_5" data-name="Layer 5"><path d="M29.28,10.31a3.1,3.1,0,0,0-2.34-1.08H21.47L24.64,6.5a1,1,0,0,0,.1-1.42A1,1,0,0,0,23.33,5L18.41,9.23H5.16a3.06,3.06,0,0,0-3,3.69L4.35,23.21a6.16,6.16,0,0,0,6,4.88H22.19A6.13,6.13,0,0,0,28.25,23L30,12.8A3.08,3.08,0,0,0,29.28,10.31ZM4.34,11.62a1,1,0,0,1,.82-.39H16.1l-.75.65a1,1,0,0,0-.1,1.41,1,1,0,0,0,1.41.1l2.5-2.16h7.78a1.06,1.06,0,0,1,1,1.24l-.29,1.73H4.48l-.35-1.69A1.05,1.05,0,0,1,4.34,11.62ZM22.19,26.09H10.36A4.17,4.17,0,0,1,6.3,22.8L4.91,16.2H27.36l-1.09,6.43A4.13,4.13,0,0,1,22.19,26.09Z"/><path d="M11.28,17.84a1,1,0,0,0-1,1v3.87a1,1,0,0,0,2,0V18.84A1,1,0,0,0,11.28,17.84Z"/><path d="M20.93,17.84a1,1,0,0,0-1,1v3.87a1,1,0,0,0,2,0V18.84A1,1,0,0,0,20.93,17.84Z"/><path d="M16,17.84a1,1,0,0,0-1,1v3.87a1,1,0,0,0,2,0V18.84A1,1,0,0,0,16,17.84Z"/></g></svg>