<svg xmlns="http://www.w3.org/2000/svg" viewBox="0 0 32 32"><g id="Layer_4" data-name="Layer 4"><path d="M27.36,22.33,26,20.47V14.15A10,10,0,0,0,17,4.2V3a1,1,0,0,0-2,0V4.22A9.9,9.9,0,0,0,9.12,7.06,10.55,10.55,0,0,0,6,14.48v6L4.55,22.28A2.5,2.5,0,0,0,4,23.85a2,2,0,0,0,2,2H25.84a2,2,0,0,0,2-2v0A2.57,2.57,0,0,0,27.36,22.33ZM6,23.85a.52.52,0,0,1,.11-.32l1.67-2.11A1,1,0,0,0,8,20.8V14.48a8.5,8.5,0,0,1,2.53-6A7.71,7.71,0,0,1,16,6.15h.05a8,8,0,0,1,8,8V20.8a1,1,0,0,0,.19.59l1.55,2.12a.57.57,0,0,1,.1.31Z"/><path d="M17,28H15a1,1,0,0,0,0,2H17a1,1,0,0,0,0-2Z"/></g></svg>