<svg xmlns="http://www.w3.org/2000/svg" viewBox="0 0 32 32"><g id="Layer_9" data-name="Layer 9"><path d="M26.71,19.16A11.68,11.68,0,0,0,24.85,18a5.91,5.91,0,0,0-5.89.74,5,5,0,0,1-5.7.15,6,6,0,0,0-6.19-.52,11.69,11.69,0,0,0-1.68,1.18,3.42,3.42,0,0,0-.69,4.69,14,14,0,0,0,22.92-.45A3.4,3.4,0,0,0,26.71,19.16ZM26,22.7a12,12,0,0,1-19.64.39,1.41,1.41,0,0,1,.29-1.93,11.8,11.8,0,0,1,1.38-1,3.62,3.62,0,0,1,1.67-.41,4.41,4.41,0,0,1,2.48.81,7,7,0,0,0,8-.21,3.91,3.91,0,0,1,3.9-.5,9.62,9.62,0,0,1,1.51.93A1.39,1.39,0,0,1,26,22.7Z"/><path d="M16,17.64a5.59,5.59,0,1,0-5.58-5.59A5.6,5.6,0,0,0,16,17.64Zm0-9.18a3.59,3.59,0,1,1-3.58,3.59A3.59,3.59,0,0,1,16,8.46Z"/></g></svg>