<svg xmlns="http://www.w3.org/2000/svg" viewBox="0 0 32 32"><g id="Layer_10" data-name="Layer 10"><path d="M30,12.29a10.43,10.43,0,0,0-1.48-5.36L27.1,4.56A5.29,5.29,0,0,0,22.58,2H9.42A5.29,5.29,0,0,0,4.9,4.56L3.36,7.13A9.6,9.6,0,0,0,2,12.06v.23a3.22,3.22,0,0,0,2.66,3.17V25a5,5,0,0,0,5,5h12.7a5,5,0,0,0,5-5V15.46A3.23,3.23,0,0,0,30,12.29ZM13.19,28V23.34a1.63,1.63,0,0,1,1.63-1.63h2.36a1.63,1.63,0,0,1,1.63,1.63V28Zm9.17,0H20.81V23.34a3.64,3.64,0,0,0-3.63-3.63H14.82a3.64,3.64,0,0,0-3.63,3.63V28H9.66a3,3,0,0,1-3-3V15.52h.61a3.21,3.21,0,0,0,2.23-.9,3.21,3.21,0,0,0,2.23.9h2a3.21,3.21,0,0,0,2.23-.9,3.21,3.21,0,0,0,2.23.9h2a3.21,3.21,0,0,0,2.23-.9,3.21,3.21,0,0,0,2.23.9h.63V25A3,3,0,0,1,22.36,28Zm4.41-14.48h-2a1.23,1.23,0,0,1-1.23-1.23,1,1,0,0,0-2,0,1.23,1.23,0,0,1-1.23,1.23h-2A1.23,1.23,0,0,1,17,12.29a1,1,0,0,0-2,0,1.23,1.23,0,0,1-1.23,1.23h-2a1.23,1.23,0,0,1-1.23-1.23,1,1,0,0,0-2,0,1.23,1.23,0,0,1-1.23,1.23h-2A1.23,1.23,0,0,1,4,12.29v-.23A7.57,7.57,0,0,1,5.08,8.15L6.61,5.59A3.3,3.3,0,0,1,9.42,4H22.58a3.3,3.3,0,0,1,2.81,1.59L26.8,8A8.4,8.4,0,0,1,28,12.29,1.23,1.23,0,0,1,26.77,13.52Z"/><path d="M18.28,16.61H13.74a1,1,0,0,0,0,2h4.54a1,1,0,0,0,0-2Z"/></g></svg>