<svg xmlns="http://www.w3.org/2000/svg" viewBox="0 0 32 32"><g id="Layer_3" data-name="Layer 3"><path d="M25.83,6.86,19,2.91a6,6,0,0,0-6,0l-6.83,4a6,6,0,0,0-3,5.19V20a6,6,0,0,0,3,5.19L13,29.09a6,6,0,0,0,6,0l6.83-3.95a6,6,0,0,0,3-5.19v-7.9A6,6,0,0,0,25.83,6.86Zm1,13.09a4,4,0,0,1-2,3.46L18,27.36a4,4,0,0,1-4,0L7.17,23.41a4,4,0,0,1-2-3.46v-7.9a4,4,0,0,1,2-3.46L14,4.64a4,4,0,0,1,4,0l6.83,4a4,4,0,0,1,2,3.46Z"/><path d="M20.62,12.09l-6,6.57-2.86-2.92a1,1,0,1,0-1.43,1.4l3.6,3.68a1,1,0,0,0,.72.3h0a1.05,1.05,0,0,0,.72-.33l6.7-7.35A1,1,0,0,0,22,12,1,1,0,0,0,20.62,12.09Z"/></g></svg>