<svg xmlns="http://www.w3.org/2000/svg" viewBox="0 0 32 32" fill="#ffffff"><g id="Layer_8" data-name="Layer 8"><path d="M21.25,12.26a2.65,2.65,0,0,0-2.13-1.06h-.28a2.65,2.65,0,0,0-2.33,1.39,7,7,0,0,1-4,3.13,4.1,4.1,0,0,0,.25-1.36,4,4,0,1,0-7.4,2.13A4.36,4.36,0,0,0,2,20.74v3.81a3,3,0,0,0,3,3h7.14a3,3,0,0,0,3-3v-2.9a10.36,10.36,0,0,0,6.54-7A2.66,2.66,0,0,0,21.25,12.26Zm-12.47.08a2,2,0,1,1-2,2A2,2,0,0,1,8.78,12.34Zm11,1.72h0a8.31,8.31,0,0,1-5.9,5.9,1,1,0,0,0-.72,1v3.63a1,1,0,0,1-1,1H5a1,1,0,0,1-1-1V20.74a2.37,2.37,0,0,1,2.37-2.37h2.5c1.13,0,6.88-.24,9.4-4.82a.63.63,0,0,1,.57-.35h.28a.66.66,0,0,1,.53.26A.68.68,0,0,1,19.76,14.06Z"/><path d="M25.79,4.46H11.53a4,4,0,0,0-4,4,1,1,0,1,0,2,0,2,2,0,0,1,2-2H25.79a2,2,0,0,1,2,2v8.41a2,2,0,0,1-2,2H22.2a1,1,0,0,0,0,2h3.59a4,4,0,0,0,4-4V8.44A4,4,0,0,0,25.79,4.46Z"/></g></svg>