<svg width="106" height="32" viewBox="0 0 106 32" fill="none" xmlns="http://www.w3.org/2000/svg">
<path d="M45.8527 18.92C45.9701 18.9413 46.1141 18.9627 46.2847 18.984C46.4554 18.9947 46.6154 19 46.7647 19C47.1274 19 47.4581 18.9467 47.7567 18.84C48.0661 18.7333 48.3274 18.568 48.5407 18.344C48.7647 18.12 48.9354 17.832 49.0527 17.48C49.1807 17.1173 49.2448 16.6853 49.2448 16.184C49.2448 15.224 49.0207 14.504 48.5727 14.024C48.1247 13.5333 47.5274 13.288 46.7807 13.288C46.6314 13.288 46.4767 13.2933 46.3167 13.304C46.1674 13.3147 46.0127 13.3307 45.8527 13.352V18.92ZM46.7487 21.256C46.5674 21.256 46.3594 21.2507 46.1247 21.24C45.8901 21.2293 45.6447 21.208 45.3887 21.176C45.1434 21.144 44.8927 21.1013 44.6367 21.048C44.3914 21.0053 44.1621 20.9413 43.9487 20.856C43.3621 20.632 43.0687 20.2427 43.0687 19.688V12.216C43.0687 11.992 43.1274 11.8213 43.2447 11.704C43.3727 11.576 43.5434 11.4747 43.7567 11.4C44.2154 11.2507 44.7007 11.1547 45.2127 11.112C45.7247 11.0587 46.1834 11.032 46.5887 11.032C47.4207 11.032 48.1727 11.1333 48.8447 11.336C49.5274 11.5387 50.1087 11.8533 50.5887 12.28C51.0794 12.696 51.4581 13.224 51.7247 13.864C51.9914 14.504 52.1248 15.2613 52.1248 16.136C52.1248 16.9893 51.9968 17.736 51.7408 18.376C51.4847 19.0053 51.1167 19.5387 50.6368 19.976C50.1674 20.4027 49.6021 20.7227 48.9407 20.936C48.2794 21.1493 47.5487 21.256 46.7487 21.256ZM53.933 11.064C53.933 10.6587 54.0663 10.3173 54.333 10.04C54.6103 9.76267 54.973 9.624 55.421 9.624C55.869 9.624 56.2263 9.76267 56.493 10.04C56.7703 10.3173 56.909 10.6587 56.909 11.064C56.909 11.4693 56.7703 11.8107 56.493 12.088C56.2263 12.3653 55.869 12.504 55.421 12.504C54.973 12.504 54.6103 12.3653 54.333 12.088C54.0663 11.8107 53.933 11.4693 53.933 11.064ZM56.781 20.984C56.6637 21.0053 56.4877 21.032 56.253 21.064C56.029 21.1067 55.7997 21.128 55.565 21.128C55.3303 21.128 55.117 21.112 54.925 21.08C54.7437 21.048 54.589 20.984 54.461 20.888C54.333 20.792 54.2317 20.664 54.157 20.504C54.093 20.3333 54.061 20.1147 54.061 19.848V13.336C54.1783 13.3147 54.349 13.288 54.573 13.256C54.8077 13.2133 55.0423 13.192 55.277 13.192C55.5117 13.192 55.7197 13.208 55.901 13.24C56.093 13.272 56.253 13.336 56.381 13.432C56.509 13.528 56.605 13.6613 56.669 13.832C56.7437 13.992 56.781 14.2053 56.781 14.472V20.984ZM62.7846 12.984C63.3926 12.984 63.942 13.064 64.4326 13.224C64.934 13.3733 65.3553 13.5707 65.6966 13.816C65.91 13.9653 66.0753 14.1307 66.1926 14.312C66.3206 14.4933 66.3846 14.728 66.3846 15.016V20.616C66.3846 21.1813 66.278 21.6667 66.0646 22.072C65.8513 22.488 65.558 22.8293 65.1846 23.096C64.822 23.3733 64.39 23.576 63.8886 23.704C63.398 23.832 62.87 23.896 62.3046 23.896C61.334 23.896 60.5713 23.7627 60.0166 23.496C59.462 23.24 59.1846 22.8187 59.1846 22.232C59.1846 21.9867 59.2326 21.768 59.3286 21.576C59.4353 21.3947 59.5526 21.256 59.6806 21.16C59.99 21.3307 60.3366 21.4747 60.7206 21.592C61.1153 21.7093 61.5206 21.768 61.9366 21.768C62.5126 21.768 62.9713 21.672 63.3126 21.48C63.654 21.288 63.8246 20.9787 63.8246 20.552V20.296C63.3873 20.488 62.854 20.584 62.2246 20.584C61.7446 20.584 61.286 20.5147 60.8486 20.376C60.422 20.2267 60.0433 20.0027 59.7126 19.704C59.3926 19.3947 59.1313 19 58.9286 18.52C58.7366 18.04 58.6406 17.4693 58.6406 16.808C58.6406 16.1573 58.742 15.592 58.9446 15.112C59.158 14.632 59.446 14.2373 59.8086 13.928C60.182 13.608 60.6193 13.3733 61.1206 13.224C61.6326 13.064 62.1873 12.984 62.7846 12.984ZM63.7766 15.304C63.702 15.2613 63.59 15.2187 63.4406 15.176C63.302 15.1333 63.126 15.112 62.9126 15.112C62.39 15.112 61.9953 15.2613 61.7286 15.56C61.4726 15.848 61.3446 16.264 61.3446 16.808C61.3446 17.4267 61.4726 17.8747 61.7286 18.152C61.9953 18.4187 62.3313 18.552 62.7366 18.552C63.174 18.552 63.5206 18.4507 63.7766 18.248V15.304ZM68.4868 11.064C68.4868 10.6587 68.6201 10.3173 68.8868 10.04C69.1641 9.76267 69.5268 9.624 69.9748 9.624C70.4228 9.624 70.7801 9.76267 71.0468 10.04C71.3241 10.3173 71.4628 10.6587 71.4628 11.064C71.4628 11.4693 71.3241 11.8107 71.0468 12.088C70.7801 12.3653 70.4228 12.504 69.9748 12.504C69.5268 12.504 69.1641 12.3653 68.8868 12.088C68.6201 11.8107 68.4868 11.4693 68.4868 11.064ZM71.3348 20.984C71.2174 21.0053 71.0414 21.032 70.8068 21.064C70.5828 21.1067 70.3534 21.128 70.1188 21.128C69.8841 21.128 69.6708 21.112 69.4788 21.08C69.2974 21.048 69.1428 20.984 69.0148 20.888C68.8868 20.792 68.7854 20.664 68.7108 20.504C68.6468 20.3333 68.6148 20.1147 68.6148 19.848V13.336C68.7321 13.3147 68.9028 13.288 69.1268 13.256C69.3614 13.2133 69.5961 13.192 69.8307 13.192C70.0654 13.192 70.2734 13.208 70.4548 13.24C70.6468 13.272 70.8068 13.336 70.9348 13.432C71.0628 13.528 71.1588 13.6613 71.2228 13.832C71.2974 13.992 71.3348 14.2053 71.3348 14.472V20.984ZM78.1094 13.672C78.2267 13.6187 78.408 13.56 78.6534 13.496C78.9094 13.4213 79.1654 13.384 79.4214 13.384C79.8694 13.384 80.2427 13.4533 80.5414 13.592C80.84 13.72 81.0214 13.912 81.0854 14.168C81.2027 14.6053 81.3094 15.016 81.4054 15.4C81.512 15.7733 81.6134 16.136 81.7094 16.488C81.8054 16.8293 81.896 17.1707 81.9814 17.512C82.0774 17.8533 82.168 18.2107 82.2534 18.584H82.3334C82.4294 17.9333 82.5147 17.3147 82.5894 16.728C82.664 16.1307 82.7334 15.5493 82.7974 14.984C82.8614 14.408 82.9254 13.8427 82.9894 13.288C83.0534 12.7227 83.1174 12.152 83.1814 11.576C83.576 11.352 83.9974 11.24 84.4454 11.24C84.84 11.24 85.1814 11.3253 85.4694 11.496C85.7574 11.6667 85.9014 11.9547 85.9014 12.36C85.9014 12.5947 85.8747 12.9307 85.8214 13.368C85.7787 13.7947 85.7147 14.2747 85.6294 14.808C85.5547 15.3413 85.464 15.9013 85.3574 16.488C85.2507 17.0747 85.1387 17.6347 85.0214 18.168C84.904 18.7013 84.7814 19.1867 84.6534 19.624C84.536 20.0507 84.424 20.3813 84.3174 20.616C84.1574 20.7653 83.896 20.888 83.5334 20.984C83.1707 21.08 82.7974 21.128 82.4134 21.128C81.912 21.128 81.4854 21.064 81.1334 20.936C80.792 20.7973 80.584 20.6053 80.5094 20.36C80.3707 19.9333 80.2214 19.4267 80.0614 18.84C79.9014 18.2533 79.7307 17.608 79.5494 16.904C79.4 17.5973 79.2454 18.2747 79.0854 18.936C78.9254 19.5973 78.7814 20.1573 78.6534 20.616C78.4934 20.7653 78.2534 20.888 77.9334 20.984C77.6134 21.08 77.2614 21.128 76.8774 21.128C76.3974 21.128 75.96 21.064 75.5654 20.936C75.1814 20.7973 74.9307 20.6053 74.8134 20.36C74.7174 20.168 74.6107 19.8853 74.4934 19.512C74.3867 19.128 74.2747 18.696 74.1574 18.216C74.04 17.7253 73.9174 17.1973 73.7894 16.632C73.672 16.0667 73.56 15.5013 73.4534 14.936C73.3574 14.3707 73.2667 13.8213 73.1814 13.288C73.096 12.744 73.032 12.248 72.9894 11.8C73.1387 11.6613 73.3467 11.5333 73.6134 11.416C73.88 11.2987 74.168 11.24 74.4774 11.24C74.8827 11.24 75.2134 11.3307 75.4694 11.512C75.736 11.6827 75.9014 11.976 75.9654 12.392C76.136 13.48 76.2747 14.3867 76.3814 15.112C76.4987 15.8373 76.5894 16.4347 76.6534 16.904C76.728 17.3627 76.7814 17.72 76.8134 17.976C76.8454 18.232 76.8774 18.4347 76.9094 18.584H76.9894C77.0854 18.1573 77.176 17.7627 77.2614 17.4C77.3467 17.0373 77.432 16.6747 77.5174 16.312C77.6134 15.9387 77.7094 15.544 77.8054 15.128C77.9014 14.7013 78.0027 14.216 78.1094 13.672ZM87.6514 13.336C87.758 13.304 87.9234 13.272 88.1474 13.24C88.382 13.208 88.622 13.192 88.8674 13.192C89.102 13.192 89.31 13.208 89.4914 13.24C89.6834 13.272 89.8434 13.336 89.9714 13.432C90.0994 13.528 90.1954 13.6613 90.2594 13.832C90.334 13.992 90.3714 14.2053 90.3714 14.472V17.912C90.3714 18.3493 90.478 18.664 90.6914 18.856C90.9047 19.0373 91.214 19.128 91.6194 19.128C91.8647 19.128 92.062 19.1067 92.2114 19.064C92.3714 19.0213 92.494 18.9787 92.5794 18.936V13.336C92.686 13.304 92.8514 13.272 93.0754 13.24C93.31 13.208 93.55 13.192 93.7954 13.192C94.03 13.192 94.238 13.208 94.4194 13.24C94.6114 13.272 94.7714 13.336 94.8994 13.432C95.0274 13.528 95.1234 13.6613 95.1874 13.832C95.262 13.992 95.2994 14.2053 95.2994 14.472V19.336C95.2994 19.8693 95.0754 20.2693 94.6274 20.536C94.254 20.7707 93.806 20.9467 93.2834 21.064C92.7714 21.192 92.2114 21.256 91.6034 21.256C91.0274 21.256 90.494 21.192 90.0034 21.064C89.5234 20.936 89.1074 20.7387 88.7554 20.472C88.4034 20.2053 88.1314 19.864 87.9394 19.448C87.7474 19.0213 87.6514 18.5093 87.6514 17.912V13.336ZM105.124 20.984C105.017 21.016 104.847 21.048 104.612 21.08C104.388 21.112 104.153 21.128 103.908 21.128C103.673 21.128 103.46 21.112 103.268 21.08C103.087 21.048 102.932 20.984 102.804 20.888C102.676 20.792 102.575 20.664 102.5 20.504C102.436 20.3333 102.404 20.1147 102.404 19.848V16.296C102.404 15.8587 102.292 15.5547 102.068 15.384C101.855 15.2027 101.588 15.112 101.268 15.112C101.055 15.112 100.852 15.1387 100.66 15.192C100.468 15.2453 100.313 15.3093 100.196 15.384V20.984C100.089 21.016 99.9185 21.048 99.6839 21.08C99.4599 21.112 99.2252 21.128 98.9799 21.128C98.7452 21.128 98.5319 21.112 98.3399 21.08C98.1585 21.048 98.0039 20.984 97.8759 20.888C97.7479 20.792 97.6465 20.664 97.5719 20.504C97.5079 20.3333 97.4759 20.1147 97.4759 19.848V10.568C97.5932 10.5467 97.7639 10.52 97.9879 10.488C98.2225 10.4453 98.4572 10.424 98.6919 10.424C98.9265 10.424 99.1345 10.44 99.3159 10.472C99.5079 10.504 99.6679 10.568 99.7959 10.664C99.9239 10.76 100.02 10.8933 100.084 11.064C100.159 11.224 100.196 11.4373 100.196 11.704V13.272C100.335 13.2187 100.543 13.16 100.82 13.096C101.108 13.0213 101.423 12.984 101.764 12.984C102.82 12.984 103.641 13.2507 104.228 13.784C104.825 14.3067 105.124 15.0907 105.124 16.136V20.984Z" fill="#50B478"/>
<path d="M13.9845 9.82273C13.9845 9.82273 21.7408 6.93659 26.6949 7.55613C24.5 6.34501 22.0152 5.6174 19.4451 5.43308C14.9045 5.22153 8.29609 7.47306 5.94138 12.5049C5.63854 13.1656 5.39858 13.848 5.22402 14.5448C5.22402 14.5448 5.23108 14.6056 5.22402 14.6355C4.60985 16.8394 4.66471 19.1501 5.38289 21.3285C6.10107 23.507 7.4565 25.4741 9.30891 27.0263C10.8634 28.2376 12.6872 29.14 14.6599 29.6739C16.6326 30.2079 18.8606 31.5182 20.9044 31.2808C17.6752 32.3655 12.8508 31.3107 10.0823 30.1538C4.49397 27.8187 -0.30551 21.8958 0.0152021 15.2774C0.175201 11.6646 1.92265 8.18267 4.54539 5.43308C6.75962 3.16599 9.90056 1.50981 13.1272 0.658094C13.1272 0.658094 28.2849 -2.80006 34.2434 10.7693C34.2434 10.7693 31.6575 8.20593 23.9013 14.2502C23.9013 14.2502 21.1752 16.3052 16.9385 11.4849C16.8963 11.5 15.5965 9.76229 13.9845 9.82273Z" fill="url(#paint0_linear_491_6951)"/>
<path d="M30.3742 10.9946C30.5683 11.244 34.1299 16.034 31.5558 21.0886C30.473 23.1415 28.6547 24.8114 26.3898 25.8326C24.1249 26.8539 21.5436 27.168 19.0564 26.7249C16.8125 26.2919 14.7637 25.2699 13.1717 23.7896C11.5798 22.3093 10.5168 20.4377 10.1187 18.414C10.1187 18.414 18.5585 26.1356 22.4154 24.2316C22.4154 24.2316 22.6517 16.9256 14.4905 15.6563C14.4905 15.6563 9.61228 15.3314 8.8105 13.231C8.8105 13.231 2.64946 22.1841 13.4608 28.591C15.423 29.3671 17.5364 29.7907 19.681 29.8377C21.006 29.8377 26.745 29.9057 31.0662 26.0071C32.758 24.492 33.9697 22.6016 34.5772 20.5295C35.2355 18.1344 35.4886 13.7297 32.5431 11.8182C31.8998 11.3992 31.1579 11.1174 30.3742 10.9946Z" fill="url(#paint1_linear_491_6951)"/>
<defs>
<linearGradient id="paint0_linear_491_6951" x1="17.6337" y1="0.626286" x2="17.6337" y2="30.9493" gradientUnits="userSpaceOnUse">
<stop stop-color="#FBBC04"/>
<stop offset="0.425" stop-color="#FFDA6F"/>
</linearGradient>
<linearGradient id="paint1_linear_491_6951" x1="21.0314" y1="10.9946" x2="21.0314" y2="29.8377" gradientUnits="userSpaceOnUse">
<stop stop-color="#50B478"/>
<stop offset="1" stop-color="#7BD39E"/>
</linearGradient>
</defs>
</svg>
